<svg viewBox="0 0 198 44" xmlns="http://www.w3.org/2000/svg" xmlns:xlink="http://www.w3.org/1999/xlink" width="198.000000" height="44.000000" fill="none" customFrame="#000000">
	<path id="Интерьер." d="M3.564 34.906L3.564 9.706L8.172 9.706L8.172 27.598L21.708 9.706L26.064 9.706L26.064 34.906L21.456 34.906L21.456 17.05L7.92 34.906L3.564 34.906ZM32.6256 34.906L32.6256 15.682L37.1256 15.682L37.1256 23.494L46.8096 23.494L46.8096 15.682L51.3096 15.682L51.3096 34.906L46.8096 34.906L46.8096 27.31L37.1256 27.31L37.1256 34.906L32.6256 34.906ZM61.3364 34.906L61.3364 18.418L62.3804 19.498L54.5684 19.498L54.5684 15.682L72.5684 15.682L72.5684 19.498L64.7924 19.498L65.8364 18.418L65.8364 34.906L61.3364 34.906ZM83.9528 35.158C81.8168 35.158 79.9448 34.738 78.3368 33.898C76.7528 33.034 75.5168 31.858 74.6288 30.37C73.7648 28.882 73.3328 27.19 73.3328 25.294C73.3328 23.374 73.7528 21.682 74.5928 20.218C75.4568 18.73 76.6328 17.566 78.1208 16.726C79.6328 15.886 81.3488 15.466 83.2688 15.466C85.1408 15.466 86.8088 15.874 88.2728 16.69C89.7368 17.506 90.8888 18.658 91.7288 20.146C92.5688 21.634 92.9888 23.386 92.9888 25.402C92.9888 25.594 92.9768 25.81 92.9528 26.05C92.9528 26.29 92.9408 26.518 92.9168 26.734L76.8968 26.734L76.8968 23.746L90.5408 23.746L88.7768 24.682C88.8008 23.578 88.5728 22.606 88.0928 21.766C87.6128 20.926 86.9528 20.266 86.1128 19.786C85.2968 19.306 84.3488 19.066 83.2688 19.066C82.1648 19.066 81.1928 19.306 80.3528 19.786C79.5368 20.266 78.8888 20.938 78.4088 21.802C77.9528 22.642 77.7248 23.638 77.7248 24.79L77.7248 25.51C77.7248 26.662 77.9888 27.682 78.5168 28.57C79.0448 29.458 79.7888 30.142 80.7488 30.622C81.7088 31.102 82.8128 31.342 84.0608 31.342C85.1408 31.342 86.1128 31.174 86.9768 30.838C87.8408 30.502 88.6088 29.974 89.2808 29.254L91.6928 32.026C90.8288 33.034 89.7368 33.814 88.4168 34.366C87.1208 34.894 85.6328 35.158 83.9528 35.158ZM108.567 35.158C107.007 35.158 105.579 34.798 104.283 34.078C103.011 33.358 101.991 32.278 101.223 30.838C100.479 29.374 100.107 27.526 100.107 25.294C100.107 23.038 100.467 21.19 101.187 19.75C101.931 18.31 102.939 17.242 104.211 16.546C105.483 15.826 106.935 15.466 108.567 15.466C110.463 15.466 112.131 15.874 113.571 16.69C115.035 17.506 116.187 18.646 117.027 20.11C117.891 21.574 118.323 23.302 118.323 25.294C118.323 27.286 117.891 29.026 117.027 30.514C116.187 31.978 115.035 33.118 113.571 33.934C112.131 34.75 110.463 35.158 108.567 35.158ZM97.9107 41.89L97.9107 15.682L102.195 15.682L102.195 20.218L102.051 25.33L102.411 30.442L102.411 41.89L97.9107 41.89ZM108.063 31.306C109.143 31.306 110.103 31.066 110.943 30.586C111.807 30.106 112.491 29.41 112.995 28.498C113.499 27.586 113.751 26.518 113.751 25.294C113.751 24.046 113.499 22.978 112.995 22.09C112.491 21.178 111.807 20.482 110.943 20.002C110.103 19.522 109.143 19.282 108.063 19.282C106.983 19.282 106.011 19.522 105.147 20.002C104.283 20.482 103.599 21.178 103.095 22.09C102.591 22.978 102.339 24.046 102.339 25.294C102.339 26.518 102.591 27.586 103.095 28.498C103.599 29.41 104.283 30.106 105.147 30.586C106.011 31.066 106.983 31.306 108.063 31.306ZM132.449 22.018C134.921 22.018 136.805 22.57 138.101 23.674C139.397 24.778 140.045 26.338 140.045 28.354C140.045 30.442 139.325 32.074 137.885 33.25C136.445 34.402 134.417 34.966 131.801 34.942L122.801 34.906L122.801 15.682L127.301 15.682L127.301 21.982L132.449 22.018ZM131.405 31.63C132.725 31.654 133.733 31.378 134.429 30.802C135.125 30.226 135.473 29.386 135.473 28.282C135.473 27.178 135.125 26.386 134.429 25.906C133.757 25.402 132.749 25.138 131.405 25.114L127.301 25.078L127.301 31.594L131.405 31.63ZM152.965 35.158C150.829 35.158 148.957 34.738 147.349 33.898C145.765 33.034 144.529 31.858 143.641 30.37C142.777 28.882 142.345 27.19 142.345 25.294C142.345 23.374 142.765 21.682 143.605 20.218C144.469 18.73 145.645 17.566 147.133 16.726C148.645 15.886 150.361 15.466 152.281 15.466C154.153 15.466 155.821 15.874 157.285 16.69C158.749 17.506 159.901 18.658 160.741 20.146C161.581 21.634 162.001 23.386 162.001 25.402C162.001 25.594 161.989 25.81 161.965 26.05C161.965 26.29 161.953 26.518 161.929 26.734L145.909 26.734L145.909 23.746L159.553 23.746L157.789 24.682C157.813 23.578 157.585 22.606 157.105 21.766C156.625 20.926 155.965 20.266 155.125 19.786C154.309 19.306 153.361 19.066 152.281 19.066C151.177 19.066 150.205 19.306 149.365 19.786C148.549 20.266 147.901 20.938 147.421 21.802C146.965 22.642 146.737 23.638 146.737 24.79L146.737 25.51C146.737 26.662 147.001 27.682 147.529 28.57C148.057 29.458 148.801 30.142 149.761 30.622C150.721 31.102 151.825 31.342 153.073 31.342C154.153 31.342 155.125 31.174 155.989 30.838C156.853 30.502 157.621 29.974 158.293 29.254L160.705 32.026C159.841 33.034 158.749 33.814 157.429 34.366C156.133 34.894 154.645 35.158 152.965 35.158ZM177.578 35.158C176.018 35.158 174.59 34.798 173.294 34.078C172.022 33.358 171.002 32.278 170.234 30.838C169.49 29.374 169.118 27.526 169.118 25.294C169.118 23.038 169.478 21.19 170.198 19.75C170.942 18.31 171.95 17.242 173.222 16.546C174.494 15.826 175.946 15.466 177.578 15.466C179.474 15.466 181.142 15.874 182.582 16.69C184.046 17.506 185.198 18.646 186.038 20.11C186.902 21.574 187.334 23.302 187.334 25.294C187.334 27.286 186.902 29.026 186.038 30.514C185.198 31.978 184.046 33.118 182.582 33.934C181.142 34.75 179.474 35.158 177.578 35.158ZM166.922 41.89L166.922 15.682L171.206 15.682L171.206 20.218L171.062 25.33L171.422 30.442L171.422 41.89L166.922 41.89ZM177.074 31.306C178.154 31.306 179.114 31.066 179.954 30.586C180.818 30.106 181.502 29.41 182.006 28.498C182.51 27.586 182.762 26.518 182.762 25.294C182.762 24.046 182.51 22.978 182.006 22.09C181.502 21.178 180.818 20.482 179.954 20.002C179.114 19.522 178.154 19.282 177.074 19.282C175.994 19.282 175.022 19.522 174.158 20.002C173.294 20.482 172.61 21.178 172.106 22.09C171.602 22.978 171.35 24.046 171.35 25.294C171.35 26.518 171.602 27.586 172.106 28.498C172.61 29.41 173.294 30.106 174.158 30.586C175.022 31.066 175.994 31.306 177.074 31.306ZM192.865 35.158C192.049 35.158 191.353 34.882 190.777 34.33C190.201 33.754 189.913 33.034 189.913 32.17C189.913 31.258 190.201 30.538 190.777 30.01C191.353 29.458 192.049 29.182 192.865 29.182C193.681 29.182 194.377 29.458 194.953 30.01C195.529 30.538 195.817 31.258 195.817 32.17C195.817 33.034 195.529 33.754 194.953 34.33C194.377 34.882 193.681 35.158 192.865 35.158Z" fill="rgb(0,0,0)" fill-rule="nonzero" />
</svg>
